<?xml version="1.0" encoding="UTF-8"?>
<!-- Created with Inkscape (http://www.inkscape.org/) -->
<svg width="163.81mm" height="190.61mm" version="1.1" viewBox="0 0 163.81 190.61" xml:space="preserve" xmlns="http://www.w3.org/2000/svg"><g transform="translate(-34.754 -47.57)"><g transform="translate(0 .69403)"><g transform="translate(14.584)"><path d="m54.312 64.523v98.221a0.55468 0.55468 22.748 0 0 0.94349 0.3956l46.256-45.464a0.80757 0.80757 0 0 1 1.1322 0l46.256 45.464a0.55468 0.55468 157.25 0 0 0.94349-0.3956v-98.221a17.647 17.647 45 0 0-17.647-17.647h-60.237a17.647 17.647 135 0 0-17.647 17.647z" fill="#6049b3"/><path d="m60.683 64.112v84.431a0.33269 0.33269 22.74 0 0 0.56595 0.23721l40.263-39.594a0.80715 0.80715 2.7679e-6 0 1 1.1319 0l40.263 39.594a0.33269 0.33269 157.26 0 0 0.56595-0.23721v-84.431a11.172 11.172 45 0 0-11.172-11.172h-60.446a11.172 11.172 135 0 0-11.172 11.172z" fill="#7f6cbc"/></g><g transform="translate(14.093)"><path d="m30.445 187.63c8.325 0.036 16.571 0.0718 22.747 0.15994 6.1764 0.0882 9.648 0.20812 12.622-1.8898s3.9323-5.342 5.0544-9.1425c1.9983-6.6529 3.5678-11.878 5.9243-9.1916 2.3565 2.6869 3.8349 11.388 5.7171 22.465 2.7393 14.333 4.5125 23.611 7.712 19.648s4.4883-17.035 6.4794-37.228c1.9806-21.087 3.102-33.026 5.9299-29.882 2.8279 3.1448 3.94 17.568 5.9041 43.042 2.1587 28.587 3.4777 46.054 6.8506 48.503 3.3729 2.4486 5.0213-12.864 7.7192-37.926 1.5024-16.294 2.233-24.217 5.1839-26.353 2.9509-2.1358 4.1161 4.415 6.5125 17.887 1.779 7.8182 3.3824 14.865 5.7112 16.194 2.3288 1.3286 4.5464-3.5384 7.0068-8.938 1.1013-2.7099 2.1507-5.2922 5.003-6.5201 2.8522-1.2279 6.994-0.88057 11.341-0.51604 4.1247-0.0589 7.7777-0.11111 12.374-0.17677" fill-opacity="0" stroke="#60c7d8" stroke-linejoin="round" stroke-width="6.5" style="paint-order:normal"/><path d="m50.569 173.7-29.557 13.616a0.60335 0.60335 89.782 0 0 0.0042 1.0979l29.669 13.395a0.54071 0.54071 136.53 0 0 0.72648-0.68869l-4.7872-12.317a3.3977 3.3977 90.034 0 1 0.0015-2.4655l4.6645-11.959a0.53393 0.53393 43.287 0 0-0.72083-0.67896z" fill="#60c7d8" style="paint-order:normal"/><path d="m154.5 173.66 29.62 13.563a0.60481 0.60481 90.034 0 1-6.5e-4 1.1001l-29.534 13.481a0.53694 0.53694 43.374 0 1-0.72329-0.68336l4.6862-12.03a3.4004 3.4004 90.024 0 0 1e-3 -2.4658l-4.7725-12.282a0.53668 0.53668 136.68 0 1 0.72367-0.68234z" fill="#60c7d8" style="paint-order:normal"/></g></g></g></svg>
