<svg xmlns="http://www.w3.org/2000/svg" version="1.0" viewBox="20.3 11 1338.1 1545"><path fill="#7d6aba" d="M986 817 702 538l-20-18c-1-1-3 2-5 3l-11 10-17 17-56 54c-20 21-41 41-62 60-20 22-40 42-61 62a1191 1191 0 0 1-105 100c-2 4-7 8-11 11-2 1-10 11-13 11-5 2 1-13 1-17v-59c-1-218 0-435 3-653 0-16 3-26 15-42 11-11 25-15 45-19h542c16 1 30 10 44 16 11 16 24 32 27 52 2 18 1 36 2 54v138l2 508c0 6 1 12-1 17-4 4-12-3-15-6l-20-20Z"/><path fill="#5dc6d6" d="M785 1555c-23-10-30-37-36-59-15-60-19-122-25-184-12-115-21-231-29-346-3-32-6-64-11-95-6 9-5 29-8 43-15 114-21 230-38 344-6 29-11 60-27 86-8 14-25 21-41 19-19-1-31-21-38-37-17-45-23-92-32-139-8-53-17-106-32-157-15 33-21 70-38 103a91 91 0 0 1-60 44c-21 4-44 4-66 5h-59c-1 13 13 42 18 55 23 50 14 39-9 29-71-32-159-73-229-107-11-11 17-16 24-21 26-12 52-22 77-36 32-16 91-42 124-56 27-12 31-16 18 19l-24 59c18 4 36 2 53 3 23-1 46-1 68-5 18-9 23-31 30-48l27-75c7-17 22-30 40-35 12-1 26 1 35 11 23 21 28 54 35 83 15 72 23 146 40 219 0 9 6 14 6 2 14-55 18-113 24-169 9-90 16-181 31-270 5-25 9-54 30-71 12-11 33-10 43 3 19 25 24 56 29 85 11 67 15 134 20 201 10 131 23 261 39 391 9-33 11-68 16-102 9-81 17-162 27-242 5-31 9-63 23-92 7-14 22-28 39-26 16-2 30 7 37 20 21 36 25 79 34 120 8 37 14 76 28 112 7 18 15-8 19-15 12-25 20-54 40-75 19-18 48-20 73-24l-27-76c-3-16 16-5 24-2 74 34 150 66 223 101 19 10-12 16-20 21-77 35-149 69-226 102-20 8 7-32 13-49l15-41c-10-3-31 2-39 11-21 30-27 68-49 96-11 13-28 23-46 20-14 0-26-11-35-21-18-23-23-53-31-80l-31-145c-7 14-7 31-10 47-14 90-20 182-32 273-5 44-10 88-23 130-6 16-13 34-29 41-7 3-15 4-22 2z"/><path fill="#5c44ad" d="M298 959c-2-9 0-18-1-26V141c0-14 4-42 10-56 7-13 18-26 27-36 18-17 43-34 83-37l72-1 439 1c17 0 35 0 51 6a123 123 0 0 1 46 30c21 20 34 47 41 75 3 17 2 35 4 53v91l-1 692c-9-5-17-14-25-20-25-23-49-49-74-73-96-91-184-191-284-278-6-7-12 4-16 7-37 36-73 73-111 108-183 177-150 154-223 222-12 11-23 24-36 34h-2Zm721-137-2-267-1-416c0-19-6-42-25-60s-45-17-68-18l-515 1c-21 2-37 15-44 24-9 11-16 21-18 60l-1 151v393c0 43-3 90-2 132 0 6-1 15 1 20l30-28c99-98 201-194 299-294 5-2 8-10 13-3l83 80 248 245c4-4 0-15 2-20z"/></svg>